<svg width="103" height="24" viewBox="0 0 103 24" fill="none" xmlns="http://www.w3.org/2000/svg">
<g clip-path="url(#clip0_6694_70018)">
<path d="M30.2232 23.5036H25.7354V6.96973H30.0594V9.56419C31.1341 7.58892 32.311 6.7804 34.1123 6.7804C34.6189 6.7804 34.9004 6.81622 35.1614 6.91344L35.2074 6.9288V10.8486H35.0437C33.5955 10.7002 32.3929 11.0226 31.5588 11.78C30.6735 12.5783 30.2232 13.8166 30.2232 15.4439V23.5036Z" fill="black"/>
<path d="M46.3273 23.9847C44.178 23.9847 42.4945 23.1352 41.4403 21.5284V23.5088H37.1162V0.27124H41.6041V8.93478C42.6685 7.33308 44.2139 6.51943 46.1994 6.51943C50.4006 6.51943 53.3328 10.1118 53.3328 15.2495C53.3328 17.8491 52.6625 20.0495 51.3934 21.6154C50.1397 23.1659 48.3896 23.9847 46.3273 23.9847ZM45.2066 10.1732C42.1465 10.1732 41.5017 12.9877 41.5017 15.3467C41.5017 18.3403 42.9806 20.1979 45.3653 20.1979C47.535 20.1979 48.7785 18.3915 48.7785 15.2495C48.7836 12.0717 47.448 10.1732 45.2066 10.1732Z" fill="black"/>
<path d="M59.858 6.96973H55.3701V23.5088H59.858V6.96973Z" fill="black"/>
<path d="M68.5109 23.5394C67.1548 23.5394 63.9974 23.1505 63.9974 19.5377V9.98376H61.7305V6.96969H63.9974V1.85242H68.388V6.96457H71.2025V9.97864H68.388V18.6064C68.388 19.6554 68.8998 20.1671 69.9488 20.1671C70.4861 20.1671 71.2179 20.1364 71.223 20.1364L71.2946 20.1313V23.4626L71.2281 23.4678C71.223 23.4729 70.22 23.5394 68.5109 23.5394Z" fill="black"/>
<path d="M78.6121 23.8875C75.0402 23.8875 72.8193 21.9378 72.8193 18.8009C72.8193 14.9118 76.1763 13.919 79.4616 13.4585C82.1686 13.0747 83.366 12.8598 83.366 11.6726C83.366 10.4751 82.3886 9.79453 80.6846 9.79453C78.6991 9.79453 77.7114 10.5058 77.5886 12.0308L77.5835 12.0922H73.5818L73.5869 12.0205C73.6535 10.4751 74.2829 9.14975 75.3933 8.19282C76.6573 7.10285 78.4483 6.5553 80.7204 6.5553C85.4129 6.5553 87.6952 8.55615 87.6952 12.6653V21.0065C87.6952 22.2193 87.8743 22.9459 88.2428 23.2222L88.2684 23.2427V23.5088H83.9801L83.9596 23.4832C83.7447 23.212 83.5707 22.6235 83.4479 21.728C82.143 23.6265 80.352 23.8875 78.6121 23.8875ZM83.4684 15.3058C82.752 15.6896 81.7387 15.9301 80.7511 16.1604L80.5157 16.2167C78.2539 16.7284 77.1793 17.2299 77.1793 18.7088C77.1793 20.0598 77.9929 20.7148 79.6662 20.7148C82.1584 20.7148 83.4633 19.1745 83.4633 17.6495V15.3058H83.4684Z" fill="black"/>
<path d="M95.0181 23.5036H90.5303V0.27124H95.0181V23.5036Z" fill="black"/>
<path d="M100.08 23.5037H100.049C98.7441 23.5037 97.6797 22.4342 97.6797 21.119C97.6797 19.8039 98.7441 18.7344 100.049 18.7344H100.08C101.385 18.7344 102.449 19.8039 102.449 21.119C102.449 22.4342 101.385 23.5037 100.08 23.5037Z" fill="#FC5252"/>
<path d="M11.8424 23.7596C5.33325 23.7596 0.0419922 18.4683 0.0419922 11.9643C0.0419922 5.4602 5.33325 0.163818 11.8424 0.163818C18.3516 0.163818 23.6428 5.45508 23.6428 11.9643C23.6428 18.4734 18.3465 23.7596 11.8424 23.7596ZM11.8424 4.64143C7.80489 4.64143 4.5196 7.92672 4.5196 11.9643C4.5196 16.0018 7.80489 19.2871 11.8424 19.2871C15.8799 19.2871 19.1652 16.0018 19.1652 11.9643C19.1652 7.92672 15.8799 4.64143 11.8424 4.64143Z" fill="black"/>
<path d="M57.6266 4.77442H57.5959C56.2909 4.77442 55.2266 3.70491 55.2266 2.38978C55.2266 1.07464 56.2909 0.00512695 57.5959 0.00512695H57.6266C58.9315 0.00512695 59.9959 1.07464 59.9959 2.38978C60.001 3.70491 58.9366 4.77442 57.6266 4.77442Z" fill="black"/>
</g>
<defs>
<clipPath id="clip0_6694_70018">
<rect width="102.6" height="24" fill="white"/>
</clipPath>
</defs>
</svg>
